<?xml version="1.0" encoding="UTF-8"?> <svg xmlns="http://www.w3.org/2000/svg" xmlns:svg="http://www.w3.org/2000/svg" width="2750" height="330.346"><linearGradient id="c" x1="0.500057" y1="0.000413" x2="0.500057" y2="1.000417"><stop offset="0" stop-color="#3078BC"></stop><stop offset="0.877" stop-color="#1AA6DF"></stop><stop offset="1" stop-color="#1AA6DF"></stop></linearGradient><g><title>Layer 1</title><path fill="#F8F9FA" stroke="#BBBDC0" stroke-width="2" stroke-miterlimit="10" d="m497.513829,299.973082c0,8.818 -7.198,16.01 -16.014,16.01l-447.975,0c-8.874,0 -16.02,-7.193 -16.02,-16.01l0,-268.006c0,-8.852 7.148,-15.984 16.02,-15.984l447.978,0c8.818,0 16.014,7.132 16.014,15.984l0,268.006l-0.003,0z" id="svg_1"></path><path fill="#0A67B2" d="m240.782209,200.115601l-23.44,0l14.634,-90.084l23.457,0l-14.651,90.084zm-43.166,-90.084l-22.379,61.97l-2.669,-13.406l0,0.005l-7.866,-40.475s-0.954,-8.096 -11.111,-8.096l-36.98,0l-0.42,1.533s11.318,2.365 24.508,10.312l20.39,78.235l24.417,0l37.319,-90.08l-25.209,0l0,0.002zm184.386,90.084l21.564,0l-18.75,-90.083l-18.835,0c-8.783,0 -10.843,6.71 -10.843,6.71l-35.013,83.377l24.421,0l4.952,-13.452l29.752,0l2.752,13.448zm-25.805,-31.851l12.331,-33.709l6.915,33.709l-19.246,0zm-34.197,-36.547l3.273,-19.377s-10.32,-3.976 -21.081,-3.976c-11.618,0 -39.248,5.077 -39.248,29.899c0,23.221 32.466,23.482 32.466,35.685c0,12.222 -29.101,10.089 -38.704,2.326l-3.478,20.229s10.511,5.071 26.457,5.071c15.958,0 40.176,-8.243 40.176,-30.806c0,-23.405 -32.705,-25.548 -32.705,-35.765c0.002,-10.205 22.801,-8.885 32.844,-3.286" id="svg_2"></path><path fill="#FAA634" d="m172.570175,158.606601l-7.871,-40.477s-0.951,-8.096 -11.108,-8.096l-36.98,0l-0.42,1.533s17.752,3.687 34.813,17.399c16.286,13.203 21.566,29.641 21.566,29.641" id="svg_3"></path><path clip-path="url(#b)" fill="url(#c)" d="m574.248286,16.048082l480.013,0l0,299.999l-480.013,0l0,-299.999z" id="svg_4"></path><path fill="#3078BC" d="m661.845286,133.454082l-6.938,-17.142l-6.899,17.142m166.707,-6.827c-1.394,0.858 -3.041,0.887 -5.015,0.887l-12.316,0l0,-9.55l12.483,0c1.767,0 3.611,0.08 4.808,0.774c1.314,0.627 2.128,1.962 2.128,3.803c0.002,1.878 -0.772,3.39 -2.088,4.086m87.864,6.827l-7.016,-17.142l-6.978,17.142l13.994,0zm-163.783,18.554l-10.395,0l-0.038,-33.679l-14.701,33.679l-8.902,0l-14.74,-33.707l0,33.707l-20.62,0l-3.896,-9.591l-21.11,0l-3.935,9.591l-11.01,0l18.156,-43.001l15.062,0l17.244,40.712l0,-40.712l16.547,0l13.268,29.17l12.188,-29.17l16.882,0l0,43.001zm41.424,0l-33.869,0l0,-43.001l33.869,0l0,8.956l-23.728,0l0,7.749l23.158,0l0,8.815l-23.158,0l0,8.585l23.728,0l0,8.896zm47.756,-31.419c0,6.855 -4.516,10.397 -7.145,11.461c2.217,0.856 4.113,2.369 5.016,3.621c1.43,2.139 1.676,4.049 1.676,7.889l0,8.448l-10.226,0l-0.037,-5.423c0,-2.587 0.244,-6.309 -1.602,-8.377c-1.482,-1.512 -3.739,-1.84 -7.389,-1.84l-10.884,0l0,15.64l-10.138,0l0,-43.001l23.32,0c5.181,0 8.999,0.14 12.276,2.06c3.207,1.922 5.133,4.725 5.133,9.522m16.223,31.419l-10.345,0l0,-43l10.345,0l0,43zm120.012,0l-14.367,0l-19.218,-32.274l0,32.274l-20.648,0l-3.944,-9.591l-21.063,0l-3.828,9.591l-11.861,0c-4.93,0 -11.168,-1.105 -14.703,-4.757c-3.562,-3.652 -5.416,-8.596 -5.416,-16.415c0,-6.376 1.107,-12.208 5.466,-16.813c3.278,-3.432 8.41,-5.016 15.397,-5.016l9.814,0l0,9.213l-9.609,0c-3.7,0 -5.791,0.56 -7.801,2.548c-1.729,1.811 -2.916,5.233 -2.916,9.741c0,4.605 0.903,7.927 2.791,10.097c1.56,1.702 4.396,2.219 7.063,2.219l4.552,0l14.291,-33.817l15.192,0l17.163,40.671l0,-40.67l15.437,0l17.822,29.947l0,-29.947l10.384,0l0.002,42.999zm-334.878,8.446l17.322,0l3.906,-9.551l8.744,0l3.896,9.551l34.083,0l0,-7.303l3.043,7.333l17.694,0l3.042,-7.441l0,7.412l84.704,0l-0.04,-15.677l1.639,0c1.146,0.039 1.48,0.146 1.48,2.066l0,13.61l43.812,0l0,-3.65c3.532,1.92 9.028,3.65 16.262,3.65l18.429,0l3.944,-9.551l8.746,0l3.856,9.551l35.517,0l0,-9.074l5.378,9.074l28.459,0l0,-59.971l-28.166,0l0,7.083l-3.943,-7.083l-28.902,0l0,7.083l-3.622,-7.083l-39.039,0c-6.536,0 -12.279,0.924 -16.919,3.5l0,-3.5l-26.941,0l0,3.5c-2.953,-2.654 -6.977,-3.5 -11.449,-3.5l-98.425,0l-6.604,15.489l-6.783,-15.489l-31.002,0l0,7.083l-3.406,-7.083l-26.439,0l-12.278,28.513l-14.082,31.458l14.084,0z" id="svg_5"></path><path fill="#fff" d="m661.845286,134.454082l-6.938,-17.142l-6.899,17.142m166.707,-6.827c-1.394,0.858 -3.041,0.887 -5.015,0.887l-12.316,0l0,-9.55l12.483,0c1.767,0 3.611,0.08 4.808,0.774c1.314,0.627 2.128,1.962 2.128,3.803c0.002,1.878 -0.772,3.39 -2.088,4.086m87.864,6.827l-7.016,-17.142l-6.978,17.142l13.994,0zm-163.783,18.554l-10.395,0l-0.038,-33.679l-14.701,33.679l-8.902,0l-14.74,-33.707l0,33.707l-20.62,0l-3.896,-9.591l-21.11,0l-3.935,9.591l-11.01,0l18.156,-43.001l15.062,0l17.244,40.712l0,-40.712l16.547,0l13.268,29.17l12.188,-29.17l16.882,0l0,43.001zm41.424,0l-33.869,0l0,-43.001l33.869,0l0,8.956l-23.728,0l0,7.749l23.158,0l0,8.815l-23.158,0l0,8.585l23.728,0l0,8.896zm47.756,-31.419c0,6.855 -4.516,10.397 -7.145,11.461c2.217,0.856 4.113,2.369 5.016,3.621c1.43,2.139 1.676,4.049 1.676,7.889l0,8.448l-10.226,0l-0.037,-5.423c0,-2.587 0.244,-6.309 -1.602,-8.377c-1.482,-1.512 -3.739,-1.84 -7.389,-1.84l-10.884,0l0,15.64l-10.138,0l0,-43.001l23.32,0c5.181,0 8.999,0.14 12.276,2.06c3.207,1.922 5.133,4.725 5.133,9.522m16.223,31.419l-10.345,0l0,-43l10.345,0l0,43zm120.012,0l-14.367,0l-19.218,-32.274l0,32.274l-20.648,0l-3.944,-9.591l-21.063,0l-3.828,9.591l-11.861,0c-4.93,0 -11.168,-1.105 -14.703,-4.757c-3.562,-3.652 -5.416,-8.596 -5.416,-16.415c0,-6.376 1.107,-12.208 5.466,-16.813c3.278,-3.432 8.41,-5.016 15.397,-5.016l9.814,0l0,9.213l-9.609,0c-3.7,0 -5.791,0.56 -7.801,2.548c-1.729,1.811 -2.916,5.233 -2.916,9.741c0,4.605 0.903,7.927 2.791,10.097c1.56,1.702 4.396,2.219 7.063,2.219l4.552,0l14.291,-33.817l15.192,0l17.163,40.671l0,-40.67l15.437,0l17.822,29.947l0,-29.947l10.384,0l0.002,42.999zm-334.878,8.446l17.322,0l3.906,-9.551l8.744,0l3.896,9.551l34.083,0l0,-7.303l3.043,7.333l17.694,0l3.042,-7.441l0,7.412l84.704,0l-0.04,-15.677l1.639,0c1.146,0.039 1.48,0.146 1.48,2.066l0,13.61l43.812,0l0,-3.65c3.532,1.92 9.028,3.65 16.262,3.65l18.429,0l3.944,-9.551l8.746,0l3.856,9.551l35.517,0l0,-9.074l5.378,9.074l28.459,0l0,-59.971l-28.166,0l0,7.083l-3.943,-7.083l-28.902,0l0,7.083l-3.622,-7.083l-39.039,0c-6.536,0 -12.279,0.924 -16.919,3.5l0,-3.5l-26.941,0l0,3.5c-2.953,-2.654 -6.977,-3.5 -11.449,-3.5l-98.425,0l-6.604,15.489l-6.783,-15.489l-31.002,0l0,7.083l-3.406,-7.083l-26.439,0l-12.278,28.513l-14.082,31.458l14.084,0z" id="svg_6"></path><path fill="#3078BC" d="m995.991286,200.999082l0,-27.516l-25.402,0c-5.665,0 -9.78,1.375 -12.694,3.51l0,-3.51l-27.768,0c-4.438,0 -9.652,1.113 -12.113,3.51l0,-3.51l-49.585,0l0,3.51c-3.945,-2.882 -10.604,-3.51 -13.677,-3.51l-32.705,0l0,3.51c-3.123,-3.061 -10.064,-3.51 -14.297,-3.51l-36.604,0l-8.375,9.18l-7.845,-9.18l-54.677,0l0,59.971l53.648,0l8.629,-9.322l8.131,9.322l33.069,0.029l0,-14.105l3.253,0c4.384,0.066 9.559,-0.111 14.125,-2.107l0,16.186l27.274,0l0,-15.634l1.317,0c1.679,0 1.845,0.072 1.845,1.77l0,13.859l82.856,0c5.264,0 10.763,-1.363 13.808,-3.838l0,3.838l26.28,0c5.47,0 10.812,-0.777 14.875,-2.765l0,-0.063c5.937,-3.83 9.887,-10.535 9.887,-18.189c0.003,-4.206 -1.196,-8.123 -3.255,-11.436m-188.565,9.595l-12.654,0l0,14.416l-19.717,0l-12.49,-14.227l-12.979,14.227l-40.178,0l0,-42.979l40.796,0l12.48,14.09l12.902,-14.09l32.411,0c8.05,0 17.095,2.258 17.095,14.16c-0.002,11.94 -8.799,14.403 -17.666,14.403m61.043,-1.948c1.432,2.099 1.641,4.058 1.68,7.848l0,8.518l-10.183,0l0,-5.377c0,-2.584 0.245,-6.414 -1.64,-8.411c-1.483,-1.541 -3.741,-1.907 -7.442,-1.907l-10.839,0l0,15.695l-10.191,0l0,-42.979l23.418,0c5.133,0 8.873,0.229 12.203,2.03c3.201,1.956 5.215,4.64 5.215,9.542c0,6.859 -4.52,10.361 -7.188,11.435c2.254,0.843 4.102,2.356 4.967,3.606m41.698,-17.724l-23.752,0l0,7.813l23.173,0l0,8.77l-23.173,0l0,8.551l23.752,0.037l0,8.918l-33.854,0l0,-42.979l33.854,0l0,8.89zm25.832,34.088l-19.754,0l0,-9.213l19.677,0c1.925,0 3.287,-0.258 4.144,-1.065c0.697,-0.663 1.199,-1.629 1.199,-2.802c0,-1.254 -0.541,-2.248 -1.238,-2.844c-0.775,-0.656 -1.846,-0.955 -3.61,-0.955c-9.487,-0.325 -21.367,0.299 -21.367,-13.303c0,-6.234 3.868,-12.795 14.501,-12.795l20.336,0l0,9.147l-18.606,0c-1.844,0 -3.043,0.068 -4.063,0.773c-1.11,0.697 -1.521,1.729 -1.521,3.094c0,1.623 0.94,2.725 2.218,3.201c1.069,0.379 2.219,0.485 3.948,0.485l5.461,0.148c5.504,0.139 9.285,1.102 11.582,3.457c1.975,2.07 3.035,4.683 3.035,9.104c-0.004,9.254 -5.711,13.568 -15.942,13.568m52.201,-4.146c-2.665,2.735 -6.979,4.145 -12.602,4.145l-19.59,0l0,-9.213l19.51,0c1.935,0 3.289,-0.258 4.104,-1.065c0.707,-0.663 1.2,-1.629 1.2,-2.802c0,-1.254 -0.493,-2.246 -1.24,-2.844c-0.734,-0.656 -1.807,-0.955 -3.574,-0.955c-9.523,-0.325 -21.406,0.299 -21.406,-13.303c0,-6.234 3.908,-12.795 14.556,-12.795l19.815,0l0,9.146l-18.099,0c-1.845,0 -3.071,0.068 -4.104,0.773c-1.069,0.697 -1.481,1.729 -1.481,3.094c0,1.623 0.901,2.726 2.22,3.201c1.07,0.379 2.219,0.486 3.907,0.486l5.498,0.148c5.547,0.142 9.251,1.104 11.507,3.461c0.412,0.326 0.658,0.697 0.942,1.063l-0.345,-0.444c1.758,2.354 2.812,5.277 2.812,8.457c0.001,3.646 -1.384,6.95 -3.63,9.447m-243.259,-29.942l11.095,12.523l-11.585,12.606l-24.938,0l0,-8.549l22.268,0l0,-8.771l-22.268,0l0,-7.813l25.429,0l0,0.004l-0.001,0zm24.155,12.674l15.573,-16.949l0,34.457l-15.573,-17.508zm45.104,-7.404c0,3.719 -2.423,5.676 -6.321,5.676l-13.106,0l0,-10.945l13.224,0c3.662,-0.001 6.203,1.51 6.203,5.269m45.276,-0.628c0,1.841 -0.785,3.32 -2.101,4.127c-1.356,0.813 -3.035,0.885 -5.007,0.885l-12.322,0l0,-9.651l12.487,0c1.808,0 3.614,0.037 4.842,0.775c1.314,0.694 2.101,2.025 2.101,3.864" id="svg_7"></path><path fill="#fff" d="m995.991286,201.999082l0,-27.516l-25.402,0c-5.665,0 -9.78,1.375 -12.694,3.51l0,-3.51l-27.768,0c-4.438,0 -9.652,1.113 -12.113,3.51l0,-3.51l-49.585,0l0,3.51c-3.945,-2.882 -10.604,-3.51 -13.677,-3.51l-32.705,0l0,3.51c-3.123,-3.061 -10.064,-3.51 -14.297,-3.51l-36.604,0l-8.375,9.18l-7.845,-9.18l-54.677,0l0,59.971l53.648,0l8.629,-9.322l8.131,9.322l33.069,0.029l0,-14.105l3.253,0c4.384,0.066 9.559,-0.111 14.125,-2.107l0,16.186l27.274,0l0,-15.634l1.317,0c1.679,0 1.845,0.072 1.845,1.77l0,13.859l82.856,0c5.264,0 10.763,-1.363 13.808,-3.838l0,3.838l26.28,0c5.47,0 10.812,-0.777 14.875,-2.765l0,-0.063c5.937,-3.83 9.887,-10.535 9.887,-18.189c0.003,-4.206 -1.196,-8.123 -3.255,-11.436m-188.565,9.595l-12.654,0l0,14.416l-19.717,0l-12.49,-14.227l-12.979,14.227l-40.178,0l0,-42.979l40.796,0l12.48,14.09l12.902,-14.09l32.411,0c8.05,0 17.095,2.258 17.095,14.16c-0.002,11.94 -8.799,14.403 -17.666,14.403m61.043,-1.948c1.432,2.099 1.641,4.058 1.68,7.848l0,8.518l-10.183,0l0,-5.377c0,-2.584 0.245,-6.414 -1.64,-8.411c-1.483,-1.541 -3.741,-1.907 -7.442,-1.907l-10.839,0l0,15.695l-10.191,0l0,-42.979l23.418,0c5.133,0 8.873,0.229 12.203,2.03c3.201,1.956 5.215,4.64 5.215,9.542c0,6.859 -4.52,10.361 -7.188,11.435c2.254,0.843 4.102,2.356 4.967,3.606m41.698,-17.724l-23.752,0l0,7.813l23.173,0l0,8.77l-23.173,0l0,8.551l23.752,0.037l0,8.918l-33.854,0l0,-42.979l33.854,0l0,8.89zm25.832,34.088l-19.754,0l0,-9.213l19.677,0c1.925,0 3.287,-0.258 4.144,-1.065c0.697,-0.663 1.199,-1.629 1.199,-2.802c0,-1.254 -0.541,-2.248 -1.238,-2.844c-0.775,-0.656 -1.846,-0.955 -3.61,-0.955c-9.487,-0.325 -21.367,0.299 -21.367,-13.303c0,-6.234 3.868,-12.795 14.501,-12.795l20.336,0l0,9.147l-18.606,0c-1.844,0 -3.043,0.068 -4.063,0.773c-1.11,0.697 -1.521,1.729 -1.521,3.094c0,1.623 0.94,2.725 2.218,3.201c1.069,0.379 2.219,0.485 3.948,0.485l5.461,0.148c5.504,0.139 9.285,1.102 11.582,3.457c1.975,2.07 3.035,4.683 3.035,9.104c-0.004,9.254 -5.711,13.568 -15.942,13.568m52.201,-4.146c-2.665,2.735 -6.979,4.145 -12.602,4.145l-19.59,0l0,-9.213l19.51,0c1.935,0 3.289,-0.258 4.104,-1.065c0.707,-0.663 1.2,-1.629 1.2,-2.802c0,-1.254 -0.493,-2.246 -1.24,-2.844c-0.734,-0.656 -1.807,-0.955 -3.574,-0.955c-9.523,-0.325 -21.406,0.299 -21.406,-13.303c0,-6.234 3.908,-12.795 14.556,-12.795l19.815,0l0,9.146l-18.099,0c-1.845,0 -3.071,0.068 -4.104,0.773c-1.069,0.697 -1.481,1.729 -1.481,3.094c0,1.623 0.901,2.726 2.22,3.201c1.07,0.379 2.219,0.486 3.907,0.486l5.498,0.148c5.547,0.142 9.251,1.104 11.507,3.461c0.412,0.326 0.658,0.697 0.942,1.063l-0.345,-0.444c1.758,2.354 2.812,5.277 2.812,8.457c0.001,3.646 -1.384,6.95 -3.63,9.447m-243.259,-29.942l11.095,12.523l-11.585,12.606l-24.938,0l0,-8.549l22.268,0l0,-8.771l-22.268,0l0,-7.813l25.429,0l0,0.004l-0.001,0zm24.155,12.674l15.573,-16.949l0,34.457l-15.573,-17.508zm45.104,-7.404c0,3.719 -2.423,5.676 -6.321,5.676l-13.106,0l0,-10.945l13.224,0c3.662,-0.001 6.203,1.51 6.203,5.269m45.276,-0.628c0,1.841 -0.785,3.32 -2.101,4.127c-1.356,0.813 -3.035,0.885 -5.007,0.885l-12.322,0l0,-9.651l12.487,0c1.808,0 3.614,0.037 4.842,0.775c1.314,0.694 2.101,2.025 2.101,3.864" id="svg_8"></path><path fill="#F8F9FA" stroke="#BBBDC0" stroke-width="2" stroke-miterlimit="10" d="m1611.742286,299.973082c0,8.818 -7.198,16.01 -16.015,16.01l-447.974,0c-8.874,0 -16.021,-7.193 -16.021,-16.01l0,-268.006c0,-8.852 7.148,-15.984 16.021,-15.984l447.978,0c8.818,0 16.015,7.132 16.015,15.984l0,268.006l-0.004,0z" id="svg_9"></path><path fill="#233B77" d="m1388.995286,143.876082l-12.519,0c-1.354,0 -2.368,0.677 -3.045,1.692l-17.595,25.713l-7.442,-24.699c-0.339,-1.692 -2.031,-2.707 -3.384,-2.707l-12.52,0c-1.353,0 -2.706,1.353 -2.03,3.045l13.872,40.939l-13.194,18.271c-1.016,1.352 0,3.383 1.691,3.383l12.519,0c1.354,0 2.369,-0.677 3.046,-1.692l41.954,-60.901c1.354,-1.013 0.339,-3.044 -1.353,-3.044m-84.586,24.361c-1.354,7.105 -6.767,12.181 -14.211,12.181c-3.722,0 -6.428,-1.016 -8.459,-3.383c-2.03,-2.369 -2.706,-5.414 -2.03,-8.798c1.016,-7.104 7.106,-12.181 14.211,-12.181c3.723,0 6.429,1.354 8.459,3.384c1.691,2.368 2.368,5.414 2.03,8.797m17.255,-24.361l-12.519,0c-1.016,0 -2.03,0.677 -2.03,1.692l-0.676,3.383l-1.015,-1.353c-2.369,-3.722 -8.459,-5.075 -14.55,-5.075c-13.872,0 -25.715,10.488 -28.083,25.375c-1.353,7.444 0.338,14.549 4.737,19.286c3.722,4.399 9.474,6.429 15.902,6.429c11.166,0 17.594,-7.105 17.594,-7.105l-0.677,3.384c-0.338,1.354 0.677,2.368 2.03,2.368l11.503,0c1.692,0 3.385,-1.354 3.723,-3.045l6.767,-43.308c0.001,-1.015 -1.352,-2.031 -2.706,-2.031m-75.452,0.339c-1.353,9.474 -8.797,9.474 -15.563,9.474l-4.061,0l2.707,-17.932c0,-1.015 1.016,-1.692 2.03,-1.692l1.692,0c4.735,0 9.135,0 11.503,2.707c1.692,1.691 2.37,4.059 1.692,7.443m-3.045,-24.699l-26.391,0c-1.692,0 -3.383,1.353 -3.722,3.045l-10.489,67.331c-0.338,1.354 0.677,2.368 2.031,2.368l12.518,0c1.692,0 3.384,-1.354 3.722,-3.045l2.707,-18.271c0.338,-1.691 1.692,-3.046 3.723,-3.046l8.458,0c17.256,0 27.405,-8.458 30.112,-25.037c1.016,-7.105 0,-12.857 -3.383,-16.917c-3.721,-4.06 -10.488,-6.428 -19.286,-6.428" id="svg_10"></path><path fill="#1D9BD7" d="m1524.333286,121.207082l-10.827,68.684c-0.338,1.354 0.678,2.368 2.03,2.368l10.827,0c1.692,0 3.384,-1.354 3.722,-3.045l10.827,-67.331c0.339,-1.353 -0.676,-2.368 -2.03,-2.368l-12.18,0c-1.354,0.001 -2.031,0.678 -2.369,1.692m-32.481,47.03c-1.354,7.105 -6.768,12.181 -14.21,12.181c-3.723,0 -6.43,-1.016 -8.459,-3.383c-2.03,-2.369 -2.707,-5.414 -2.03,-8.798c1.015,-7.104 7.105,-12.181 14.211,-12.181c3.721,0 6.428,1.354 8.458,3.384c2.03,2.368 2.707,5.414 2.03,8.797m17.594,-24.361l-12.52,0c-1.015,0 -2.029,0.677 -2.029,1.692l-0.676,3.383l-1.016,-1.353c-2.707,-3.722 -8.797,-5.075 -14.888,-5.075c-13.872,0 -25.714,10.488 -28.082,25.375c-1.354,7.444 0.338,14.549 4.737,19.286c3.721,4.399 9.473,6.429 15.901,6.429c11.165,0 17.595,-7.105 17.595,-7.105l-0.678,3.384c-0.338,1.354 0.678,2.368 2.03,2.368l11.504,0c1.692,0 3.383,-1.354 3.722,-3.045l6.768,-43.308c0.001,-1.015 -1.015,-2.031 -2.368,-2.031m-75.451,0.339c-1.353,9.474 -8.797,9.474 -15.563,9.474l-4.061,0l2.707,-17.932c0,-1.015 1.015,-1.692 2.03,-1.692l1.691,0c4.736,0 9.136,0 11.504,2.707c1.692,1.691 2.03,4.059 1.692,7.443m-3.045,-24.699l-26.391,0c-1.692,0 -3.383,1.353 -3.723,3.045l-10.488,67.331c-0.338,1.354 0.677,2.368 2.03,2.368l13.533,0c1.354,0 2.369,-1.015 2.369,-2.03l3.045,-19.285c0.338,-1.691 1.692,-3.046 3.722,-3.046l8.458,0c17.257,0 27.406,-8.458 30.113,-25.037c1.015,-7.105 0,-12.857 -3.383,-16.917c-4.059,-4.061 -10.488,-6.429 -19.285,-6.429" id="svg_11"></path><path fill="#135291" d="m2174.227286,300.026082c0,8.835 -7.209,15.956 -16.023,15.956l-447.971,0c-8.87,0 -16.023,-7.125 -16.023,-15.956l0,-268.022c0,-8.82 7.153,-16.022 16.023,-16.022l447.975,0c8.811,0 16.02,7.201 16.02,16.022l0,268.022l-0.001,0z" id="svg_12"></path><path fill="#FBB230" d="m1991.808286,250.665082l4.506,-0.147l4.304,-0.279l4.326,-0.571l4.281,-0.776l4.13,-0.958l4.069,-1.161l4.08,-1.355l3.899,-1.515l3.792,-1.769l3.717,-1.889l3.688,-2.089l3.451,-2.206l3.394,-2.427l3.242,-2.555l3.1,-2.723l3.043,-2.837l2.893,-3.017l2.671,-3.134l2.623,-3.238l2.334,-3.391l2.303,-3.515l2.009,-3.599l1.892,-3.742l1.787,-3.789l1.495,-3.958l1.354,-3.979l1.233,-4.111l0.959,-4.138l0.704,-4.28l0.578,-4.325l0.281,-4.368l0.142,-4.44l-0.142,-4.407l-0.281,-4.393l-0.578,-4.256l-0.704,-4.214l-0.959,-4.186l-1.233,-4.041l-1.354,-4.012l-1.495,-3.898l-1.787,-3.788l-1.892,-3.716l-2.009,-3.586l-2.303,-3.513l-2.334,-3.397l-2.623,-3.207l-2.671,-3.16l-2.893,-2.977l-3.043,-2.859l-3.1,-2.667l-3.242,-2.556l-3.394,-2.429l-3.451,-2.226l-3.688,-2.094l-3.717,-1.885l-3.792,-1.715l-3.899,-1.568l-4.08,-1.362l-4.069,-1.156l-4.13,-0.967l-4.281,-0.734l-4.326,-0.542l-4.304,-0.352l-4.506,-0.079l-4.399,0.079l-4.378,0.352l-4.312,0.542l-4.254,0.734l-4.136,0.967l-4.051,1.156l-4.053,1.362l-3.877,1.568l-3.787,1.715l-3.708,1.885l-3.653,2.094l-3.408,2.226l-3.389,2.429l-3.255,2.556l-3.12,2.667l-2.982,2.859l-2.855,2.977l-2.737,3.16l-2.553,3.207l-2.391,3.397l-2.202,3.513l-2.054,3.586l-1.925,3.716l-1.739,3.788l-1.51,3.898l-1.357,4.012l-1.165,4.041l-0.937,4.186l-0.749,4.214l-0.576,4.256l-0.323,4.393l-0.109,4.407l0.109,4.44l0.323,4.368l0.576,4.325l0.749,4.28l0.937,4.138l1.165,4.111l1.357,3.979l1.51,3.958l1.739,3.789l1.925,3.742l2.054,3.599l2.202,3.515l2.391,3.391l2.553,3.238l2.737,3.134l2.855,3.017l2.982,2.837l3.12,2.723l3.255,2.555l3.389,2.427l3.408,2.206l3.653,2.089l3.708,1.889l3.787,1.769l3.877,1.515l4.053,1.355l4.051,1.161l4.136,0.958l4.254,0.776l4.312,0.571l4.378,0.279l4.399,0.147z" id="svg_13"></path><path fill="#EB2230" d="m1876.633286,250.665082l4.395,-0.147l4.371,-0.279l4.329,-0.571l4.245,-0.776l4.132,-0.958l4.118,-1.161l3.986,-1.355l3.909,-1.515l3.82,-1.769l3.674,-1.889l3.602,-2.089l3.495,-2.206l3.333,-2.427l3.245,-2.555l3.124,-2.723l2.974,-2.837l2.861,-3.017l2.671,-3.134l2.613,-3.238l2.391,-3.391l2.212,-3.515l2.117,-3.599l1.899,-3.742l1.693,-3.789l1.566,-3.958l1.326,-3.979l1.093,-4.111l0.969,-4.138l0.837,-4.28l0.463,-4.325l0.385,-4.368l0.105,-4.44l-0.105,-4.407l-0.385,-4.393l-0.463,-4.256l-0.837,-4.214l-0.969,-4.186l-1.093,-4.041l-1.326,-4.012l-1.566,-3.898l-1.693,-3.788l-1.899,-3.716l-2.117,-3.586l-2.212,-3.513l-2.391,-3.397l-2.613,-3.207l-2.671,-3.16l-2.861,-2.977l-2.974,-2.859l-3.124,-2.667l-3.245,-2.556l-3.333,-2.429l-3.495,-2.226l-3.602,-2.094l-3.674,-1.885l-3.82,-1.715l-3.909,-1.568l-3.986,-1.362l-4.118,-1.156l-4.132,-0.967l-4.245,-0.734l-4.329,-0.542l-4.371,-0.352l-4.395,-0.079l-4.451,0.079l-4.407,0.352l-4.276,0.542l-4.292,0.734l-4.133,0.967l-4.13,1.156l-4.014,1.362l-3.898,1.568l-3.852,1.715l-3.721,1.885l-3.556,2.094l-3.52,2.226l-3.393,2.429l-3.242,2.556l-3.166,2.667l-2.971,2.859l-2.898,2.977l-2.667,3.16l-2.554,3.207l-2.431,3.397l-2.217,3.513l-2.103,3.586l-1.877,3.716l-1.759,3.788l-1.521,3.898l-1.404,4.012l-1.166,4.041l-0.951,4.186l-0.717,4.214l-0.578,4.256l-0.34,4.393l-0.082,4.407l0.082,4.44l0.34,4.368l0.578,4.325l0.717,4.28l0.951,4.138l1.166,4.111l1.404,3.979l1.521,3.958l1.759,3.789l1.877,3.742l2.103,3.599l2.217,3.515l2.431,3.391l2.554,3.238l2.667,3.134l2.898,3.017l2.971,2.837l3.166,2.723l3.242,2.555l3.393,2.427l3.52,2.206l3.556,2.089l3.721,1.889l3.852,1.769l3.898,1.515l4.014,1.355l4.13,1.161l4.133,0.958l4.292,0.776l4.276,0.571l4.407,0.279l4.451,0.147z" id="svg_14"></path><path fill="#FBB230" d="m1924.142286,111.471082l45.761,0l0,-4.679l-41.822,0l-3.939,4.679zm-6.876,10.363l52.637,0l0,-4.684l-49.868,0l-2.769,4.684zm-5.099,10.379l57.736,0l0,-4.676l-55.72,0l-2.016,4.676zm-3.516,10.422l61.252,0l0,-4.673l-59.785,0l-1.467,4.673zm2.016,50.223l59.42,0l0,-4.677l-60.832,0l1.412,4.677zm4.429,10.42l54.991,0l0,-4.678l-57.192,0l2.201,4.678zm6.118,10.386l48.873,0l0,-4.678l-51.78,0l2.907,4.678zm8.488,10.362l40.385,0l0,-4.688l-44.445,0l4.06,4.688zm-23.101,-71.013l63.302,0l0,-4.686l-62.408,0l-0.894,4.686zm38.614,29.523l24.073,0l0,-4.678l-23.212,0l-0.861,4.678zm1.889,-10.393l22.184,0l0,-4.709l-21.282,0l-0.902,4.709zm-42.088,-4.71l6.263,0l0,4.709l-6.002,0l-0.261,-4.709z" id="svg_15"></path><path fill="#fff" d="m1893.307286,161.752082l-0.453,-0.033l-0.385,-0.04l-0.354,-0.038l-0.413,-0.079l-0.319,-0.07l-0.41,-0.041l-0.358,-0.045l-0.393,-0.074l-0.414,-0.069l-0.47,-0.045l-0.504,-0.008l-1.839,0l-0.752,0.053l-0.879,0.069l-0.544,0.112l-0.575,0.048l-0.507,0.187l-0.424,0.188l-0.394,0.199l-0.386,0.23l-0.269,0.311l-0.271,0.25l-0.16,0.292l-0.18,0.344l-0.058,0.312l0,0.38l0.093,0.356l0.145,0.416l0.232,0.356l0.246,0.357l0.608,0.566l0.704,0.428l0.786,0.412l0.91,0.279l0.923,0.31l0.965,0.347l0.951,0.315l0.938,0.384l0.857,0.47l0.791,0.644l0.716,0.739l0.654,0.886l0.464,1.08l0.269,1.336l0.115,1.565l-0.115,1.816l-0.221,1.353l-0.315,1.197l-0.466,1.102l-0.614,0.942l-0.651,0.889l-0.773,0.728l-0.784,0.623l-0.879,0.569l-0.937,0.432l-0.965,0.349l-0.999,0.311l-1.038,0.229l-0.961,0.166l-0.941,0.106l-0.96,0.053l-4.368,0l-0.962,-0.013l-0.853,-0.04l-0.808,-0.078l-0.688,-0.076l-0.661,-0.043l-0.586,-0.075l-0.575,-0.142l-0.559,-0.055l-0.469,-0.179l-0.486,-0.083l-0.455,-0.164l-0.471,-0.219l-0.498,-0.159l1.277,-6.414l0.268,0.044l0.342,0.115l0.393,0.081l0.503,0.15l0.534,0.078l0.548,0.152l0.631,0.117l0.695,0.151l0.72,0.081l0.776,0.15l0.803,0.057l0.782,0.099l0.873,0.035l0.83,0.04l0.842,0l0.846,-0.04l0.815,-0.152l0.683,-0.239l0.511,-0.336l0.425,-0.392l0.272,-0.42l0.236,-0.47l0.191,-0.468l0.074,-0.448l0.083,-0.82l-0.272,-0.731l-0.505,-0.586l-0.73,-0.47l-0.856,-0.468l-1.039,-0.442l-1.12,-0.394l-1.121,-0.461l-1.158,-0.536l-1.084,-0.583l-1.039,-0.767l-0.933,-0.893l-0.728,-1.088l-0.54,-1.347l-0.27,-1.541l0.036,-1.856l0.188,-1.124l0.201,-1.115l0.271,-0.979l0.34,-0.936l0.464,-0.864l0.541,-0.77l0.582,-0.711l0.74,-0.64l0.856,-0.525l0.937,-0.467l1.019,-0.468l1.16,-0.283l1.331,-0.278l1.405,-0.19l1.585,-0.149l1.696,-0.038l1.084,0l1.006,0.038l0.896,0.039l0.771,0.038l0.733,0.072l0.668,0.039l0.602,0.043l0.54,0.08l0.501,0.069l0.393,0.051l0.348,0.071l0.387,0.071l0.283,0.074l0.228,0.009l0.258,0.044l0.236,0.036l-1.442,6.557z" id="svg_16"></path><path stroke="#fff" stroke-width="0.216" stroke-miterlimit="2.613" fill="none" d="m1893.307286,161.752082l-0.453,-0.033l-0.385,-0.04l-0.354,-0.038l-0.413,-0.079l-0.319,-0.07l-0.41,-0.041l-0.358,-0.045l-0.393,-0.074l-0.414,-0.069l-0.47,-0.045l-0.504,-0.008l-1.839,0l-0.752,0.053l-0.879,0.069l-0.544,0.112l-0.575,0.048l-0.507,0.187l-0.424,0.188l-0.394,0.199l-0.386,0.23l-0.269,0.311l-0.271,0.25l-0.16,0.292l-0.18,0.344l-0.058,0.312l0,0.38l0.093,0.356l0.145,0.416l0.232,0.356l0.246,0.357l0.608,0.566l0.704,0.428l0.786,0.412l0.91,0.279l0.923,0.31l0.965,0.347l0.951,0.315l0.938,0.384l0.857,0.47l0.791,0.644l0.716,0.739l0.654,0.886l0.464,1.08l0.269,1.336l0.115,1.565l-0.115,1.816l-0.221,1.353l-0.315,1.197l-0.466,1.102l-0.614,0.942l-0.651,0.889l-0.773,0.728l-0.784,0.623l-0.879,0.569l-0.937,0.432l-0.965,0.349l-0.999,0.311l-1.038,0.229l-0.961,0.166l-0.941,0.106l-0.96,0.053l-4.368,0l-0.962,-0.013l-0.853,-0.04l-0.808,-0.078l-0.688,-0.076l-0.661,-0.043l-0.586,-0.075l-0.575,-0.142l-0.559,-0.055l-0.469,-0.179l-0.486,-0.083l-0.455,-0.164l-0.471,-0.219l-0.498,-0.159l1.277,-6.414l0.268,0.044l0.342,0.115l0.393,0.081l0.503,0.15l0.534,0.078l0.548,0.152l0.631,0.117l0.695,0.151l0.72,0.081l0.776,0.15l0.803,0.057l0.782,0.099l0.873,0.035l0.83,0.04l0.842,0l0.846,-0.04l0.815,-0.152l0.683,-0.239l0.511,-0.336l0.425,-0.392l0.272,-0.42l0.236,-0.47l0.191,-0.468l0.074,-0.448l0.083,-0.82l-0.272,-0.731l-0.505,-0.586l-0.73,-0.47l-0.856,-0.468l-1.039,-0.442l-1.12,-0.394l-1.121,-0.461l-1.158,-0.536l-1.084,-0.583l-1.039,-0.767l-0.933,-0.893l-0.728,-1.088l-0.54,-1.347l-0.27,-1.541l0.036,-1.856l0.188,-1.124l0.201,-1.115l0.271,-0.979l0.34,-0.936l0.464,-0.864l0.541,-0.77l0.582,-0.711l0.74,-0.64l0.856,-0.525l0.937,-0.467l1.019,-0.468l1.16,-0.283l1.331,-0.278l1.405,-0.19l1.585,-0.149l1.696,-0.038l1.084,0l1.006,0.038l0.896,0.039l0.771,0.038l0.733,0.072l0.668,0.039l0.602,0.043l0.54,0.08l0.501,0.069l0.393,0.051l0.348,0.071l0.387,0.071l0.283,0.074l0.228,0.009l0.258,0.044l0.236,0.036l-1.442,6.557" id="svg_17"></path><path fill="#fff" d="m1900.156286,148.045082l8.073,0l-1.198,7.031l4.832,0l-1.013,6.565l-5.108,-0.189l-2.81,16.213l-0.004,0.619l0.117,0.503l0.31,0.351l0.354,0.337l0.54,0.199l0.56,0.158l0.668,0.13l0.699,0.029l0.618,-0.029l0.584,-0.015l0.501,-0.115l0.467,-0.1l0.42,-0.131l0.26,-0.107l0.165,-0.019l0.064,-0.03l-1.026,5.409l-0.198,0.115l-0.194,0.147l-0.216,0.085l-0.243,0.147l-0.192,0.047l-0.233,0.116l-0.267,0.077l-0.244,0.078l-0.266,0.108l-0.312,0.054l-0.361,0.033l-0.329,0.073l-0.365,0.078l-0.47,0.043l-0.469,0.033l-0.468,0.077l-2.212,0l-1.16,-0.11l-1.035,-0.085l-0.925,-0.153l-0.761,-0.229l-0.713,-0.24l-0.502,-0.298l-0.503,-0.387l-0.399,-0.352l-0.256,-0.389l-0.213,-0.501l-0.168,-0.502l-0.062,-0.576l-0.022,-0.583l0,-0.621l0.043,-0.707l0.117,-0.7l5.525,-31.687z" id="svg_18"></path><path stroke="#fff" stroke-width="0.216" stroke-miterlimit="2.613" fill="none" d="m1900.156286,148.045082l8.073,0l-1.198,7.031l4.832,0l-1.013,6.565l-5.108,-0.189l-2.81,16.213l-0.004,0.619l0.117,0.503l0.31,0.351l0.354,0.337l0.54,0.199l0.56,0.158l0.668,0.13l0.699,0.029l0.618,-0.029l0.584,-0.015l0.501,-0.115l0.467,-0.1l0.42,-0.131l0.26,-0.107l0.165,-0.019l0.064,-0.03l-1.026,5.409l-0.198,0.115l-0.194,0.147l-0.216,0.085l-0.243,0.147l-0.192,0.047l-0.233,0.116l-0.267,0.077l-0.244,0.078l-0.266,0.108l-0.312,0.054l-0.361,0.033l-0.329,0.073l-0.365,0.078l-0.47,0.043l-0.469,0.033l-0.468,0.077l-2.212,0l-1.16,-0.11l-1.035,-0.085l-0.925,-0.153l-0.761,-0.229l-0.713,-0.24l-0.502,-0.298l-0.503,-0.387l-0.399,-0.352l-0.256,-0.389l-0.213,-0.501l-0.168,-0.502l-0.062,-0.576l-0.022,-0.583l0,-0.621l0.043,-0.707l0.117,-0.7l5.525,-31.687m18.151,24.524l-0.118,0.503l-0.028,0.532l0.067,0.511l0.153,0.579l0.194,0.576l0.239,0.479l0.283,0.571l0.365,0.497l0.388,0.507l0.428,0.43l0.469,0.421l0.531,0.377l0.543,0.284l0.558,0.262l0.596,0.195l0.583,0.151l0.735,0.081l0.737,0.117l0.769,0.09l0.768,0.026l0.742,0.038l0.773,0l0.765,-0.038l0.803,-0.026l0.744,-0.13l0.812,-0.127l0.791,-0.21l0.792,-0.241l0.841,-0.309l0.82,-0.386l0.848,-0.459l0.814,-0.481l-1.196,7.156l-0.437,0.231l-0.451,0.233l-0.47,0.152l-0.418,0.197l-0.446,0.154l-0.471,0.12l-0.467,0.142l-0.476,0.055l-0.539,0.106l-0.615,0.078l-0.578,0.043l-0.662,0.032l-0.772,0.049l-0.8,0l-0.898,0.028l-0.962,0l-1.426,-0.028l-1.408,-0.124l-1.461,-0.196l-1.463,-0.386l-1.426,-0.422l-1.351,-0.579l-1.329,-0.717l-1.189,-0.827l-1.154,-1.006l-0.965,-1.197l-0.886,-1.315l-0.702,-1.511l-0.496,-1.735l-0.271,-1.97l-0.116,-2.156l0.153,-2.348l0.117,-0.938l0.148,-1.086l0.24,-1.112l0.34,-1.245l0.43,-1.245l0.536,-1.223l0.656,-1.308l0.816,-1.218l0.936,-1.165l1.14,-1.095l1.244,-1.001l1.469,-0.853l1.692,-0.736l1.898,-0.534l2.078,-0.314l2.362,-0.154l1.119,0.038l1.202,0.149l1.197,0.19l1.198,0.308l1.154,0.431l1.125,0.515l1.037,0.712l0.938,0.784l0.847,1.003l0.809,1.163l0.573,1.314l0.423,1.579l0.165,1.696l0.039,2.005l-0.163,2.175l-0.464,2.47l-0.117,1.748l-21.198,0l1.316,-5.698l12.741,0l0.077,-0.726l-0.043,-0.697l-0.075,-0.623l-0.087,-0.607l-0.228,-0.556l-0.215,-0.467l-0.254,-0.47l-0.296,-0.401l-0.372,-0.317l-0.363,-0.306l-0.424,-0.271l-0.428,-0.23l-0.463,-0.155l-0.468,-0.149l-0.492,-0.049l-0.542,-0.073l-0.578,0.035l-0.501,0.048l-0.469,0.151l-0.498,0.155l-0.506,0.229l-0.416,0.272l-0.455,0.343l-0.395,0.317l-0.357,0.401l-0.384,0.47l-0.271,0.467l-0.269,0.47l-0.275,0.511l-0.192,0.611l-0.201,0.548l-0.105,0.649l-1.155,5.986" id="svg_19"></path><path fill="#fff" d="m1987.554286,156.776082l-0.346,-0.19l-0.345,-0.16l-0.398,-0.196l-0.44,-0.197l-0.491,-0.206l-0.446,-0.17l-0.491,-0.159l-0.515,-0.156l-0.581,-0.184l-0.584,-0.082l-0.637,-0.15l-0.522,-0.047l-0.728,-0.081l-0.629,-0.069l-2.188,0l-0.705,0.069l-0.858,0.09l-0.79,0.144l-0.778,0.236l-0.797,0.316l-0.896,0.418l-0.78,0.519l-0.738,0.639l-0.842,0.768l-0.667,0.929l-0.751,1.047l-0.558,1.306l-0.65,1.405l-0.579,1.65l-0.46,1.874l-0.097,1.021l-0.141,1.041l-0.079,0.98l0.043,1.001l0.107,1l0.12,0.93l0.343,0.849l0.273,0.905l0.429,0.755l0.533,0.769l0.662,0.658l0.623,0.633l0.844,0.487l0.923,0.449l0.954,0.399l1.06,0.268l0.353,0.045l0.462,0.11l0.508,0.077l0.613,0.04l0.683,0.044l1.392,0l0.668,-0.044l0.823,-0.081l0.717,-0.148l0.672,-0.229l0.797,-0.228l0.66,-0.281l0.722,-0.421l0.629,-0.456l0.498,-0.501l-1.264,7.74l-0.171,0.169l-0.147,0.156l-0.296,0.2l-0.205,0.174l-0.29,0.239l-0.447,0.227l-0.49,0.196l-0.447,0.154l-0.725,0.2l-0.705,0.161l-0.937,0.108l-0.951,0.121l-1.186,0.033l-1.283,0.048l-1.5,-0.048l-1.643,-0.043l-1.365,-0.186l-1.318,-0.272l-1.314,-0.459l-1.314,-0.547l-1.252,-0.692l-1.295,-0.876l-1.086,-1.023l-1.119,-1.151l-0.971,-1.346l-0.772,-1.406l-0.763,-1.638l-0.534,-1.789l-0.314,-1.96l-0.149,-2.059l0.072,-2.242l0.37,-2.432l0.207,-1.193l0.284,-1.161l0.289,-1.123l0.245,-1.047l0.399,-1.039l0.356,-1.036l0.356,-0.967l0.384,-0.892l0.432,-0.887l0.425,-0.818l0.501,-0.844l0.531,-0.769l0.545,-0.71l0.614,-0.71l0.548,-0.629l0.582,-0.581l0.72,-0.619l0.598,-0.515l0.763,-0.494l0.662,-0.466l0.871,-0.447l0.741,-0.391l0.78,-0.314l0.844,-0.348l0.939,-0.307l0.938,-0.233l0.933,-0.194l0.942,-0.155l0.941,-0.16l1.067,-0.11l1.076,-0.07l1.111,-0.045l0.938,0.045l0.921,0.07l0.856,0.11l0.848,0.087l0.778,0.141l0.838,0.161l0.741,0.12l0.643,0.186l0.71,0.197l0.619,0.157l0.546,0.159l0.484,0.2l0.395,0.138l0.311,0.09l0.239,0.15l0.193,0.074l-1.477,7.997z" id="svg_20"></path><path stroke="#fff" stroke-width="0.216" stroke-miterlimit="2.613" fill="none" d="m1987.554286,156.776082l-0.346,-0.19l-0.345,-0.16l-0.398,-0.196l-0.44,-0.197l-0.491,-0.206l-0.446,-0.17l-0.491,-0.159l-0.515,-0.156l-0.581,-0.184l-0.584,-0.082l-0.637,-0.15l-0.522,-0.047l-0.728,-0.081l-0.629,-0.069l-2.188,0l-0.705,0.069l-0.858,0.09l-0.79,0.144l-0.778,0.236l-0.797,0.316l-0.896,0.418l-0.78,0.519l-0.738,0.639l-0.842,0.768l-0.667,0.929l-0.751,1.047l-0.558,1.306l-0.65,1.405l-0.579,1.65l-0.46,1.874l-0.097,1.021l-0.141,1.041l-0.079,0.98l0.043,1.001l0.107,1l0.12,0.93l0.343,0.849l0.273,0.905l0.429,0.755l0.533,0.769l0.662,0.658l0.623,0.633l0.844,0.487l0.923,0.449l0.954,0.399l1.06,0.268l0.353,0.045l0.462,0.11l0.508,0.077l0.613,0.04l0.683,0.044l1.392,0l0.668,-0.044l0.823,-0.081l0.717,-0.148l0.672,-0.229l0.797,-0.228l0.66,-0.281l0.722,-0.421l0.629,-0.456l0.498,-0.501l-1.264,7.74l-0.171,0.169l-0.147,0.156l-0.296,0.2l-0.205,0.174l-0.29,0.239l-0.447,0.227l-0.49,0.196l-0.447,0.154l-0.725,0.2l-0.705,0.161l-0.937,0.108l-0.951,0.121l-1.186,0.033l-1.283,0.048l-1.5,-0.048l-1.643,-0.043l-1.365,-0.186l-1.318,-0.272l-1.314,-0.459l-1.314,-0.547l-1.252,-0.692l-1.295,-0.876l-1.086,-1.023l-1.119,-1.151l-0.971,-1.346l-0.772,-1.406l-0.763,-1.638l-0.534,-1.789l-0.314,-1.96l-0.149,-2.059l0.072,-2.242l0.37,-2.432l0.207,-1.193l0.284,-1.161l0.289,-1.123l0.245,-1.047l0.399,-1.039l0.356,-1.036l0.356,-0.967l0.384,-0.892l0.432,-0.887l0.425,-0.818l0.501,-0.844l0.531,-0.769l0.545,-0.71l0.614,-0.71l0.548,-0.629l0.582,-0.581l0.72,-0.619l0.598,-0.515l0.763,-0.494l0.662,-0.466l0.871,-0.447l0.741,-0.391l0.78,-0.314l0.844,-0.348l0.939,-0.307l0.938,-0.233l0.933,-0.194l0.942,-0.155l0.941,-0.16l1.067,-0.11l1.076,-0.07l1.111,-0.045l0.938,0.045l0.921,0.07l0.856,0.11l0.848,0.087l0.778,0.141l0.838,0.161l0.741,0.12l0.643,0.186l0.71,0.197l0.619,0.157l0.546,0.159l0.484,0.2l0.395,0.138l0.311,0.09l0.239,0.15l0.193,0.074l-1.477,7.997" id="svg_21"></path><path fill="#fff" d="m2059.153286,186.165082l-8.068,0l0.568,-3.207l0,-0.306l-0.49,0.592l-0.449,0.49l-0.489,0.465l-0.527,0.451l-0.543,0.358l-0.537,0.34l-0.536,0.24l-0.581,0.242l-0.536,0.225l-0.492,0.151l-0.562,0.114l-0.617,0.112l-0.608,0.093l-0.533,0.027l-0.518,0.041l-0.614,0l-1.54,-0.085l-1.393,-0.343l-1.236,-0.499l-1.233,-0.658l-0.967,-0.827l-0.938,-0.987l-0.88,-1.115l-0.625,-1.18l-0.607,-1.341l-0.467,-1.346l-0.277,-1.428l-0.298,-1.506l-0.114,-1.44l0.033,-1.533l0.186,-1.478l0.238,-1.458l0.447,-1.745l0.494,-1.618l0.644,-1.504l0.737,-1.39l0.761,-1.279l0.856,-1.163l0.886,-1.069l0.967,-0.96l1.042,-0.826l1.113,-0.73l1.02,-0.621l1.151,-0.501l1.132,-0.393l1.184,-0.265l1.136,-0.19l1.216,-0.039l0.819,0.031l0.785,0.051l0.836,0.185l0.62,0.194l0.726,0.236l0.621,0.261l0.493,0.281l0.518,0.346l0.464,0.331l0.426,0.401l0.47,0.35l0.33,0.418l0.239,0.353l0.342,0.354l0.162,0.383l0.22,0.325l1.966,-11.413l7.989,0l-6.562,38.002z" id="svg_22"></path><path stroke="#fff" stroke-width="0.216" stroke-miterlimit="2.613" fill="none" d="m2059.153286,186.165082l-8.068,0l0.568,-3.207l0,-0.306l-0.49,0.592l-0.449,0.49l-0.489,0.465l-0.527,0.451l-0.543,0.358l-0.537,0.34l-0.536,0.24l-0.581,0.242l-0.536,0.225l-0.492,0.151l-0.562,0.114l-0.617,0.112l-0.608,0.093l-0.533,0.027l-0.518,0.041l-0.614,0l-1.54,-0.085l-1.393,-0.343l-1.236,-0.499l-1.233,-0.658l-0.967,-0.827l-0.938,-0.987l-0.88,-1.115l-0.625,-1.18l-0.607,-1.341l-0.467,-1.346l-0.277,-1.428l-0.298,-1.506l-0.114,-1.44l0.033,-1.533l0.186,-1.478l0.238,-1.458l0.447,-1.745l0.494,-1.618l0.644,-1.504l0.737,-1.39l0.761,-1.279l0.856,-1.163l0.886,-1.069l0.967,-0.96l1.042,-0.826l1.113,-0.73l1.02,-0.621l1.151,-0.501l1.132,-0.393l1.184,-0.265l1.136,-0.19l1.216,-0.039l0.819,0.031l0.785,0.051l0.836,0.185l0.62,0.194l0.726,0.236l0.621,0.261l0.493,0.281l0.518,0.346l0.464,0.331l0.426,0.401l0.47,0.35l0.33,0.418l0.239,0.353l0.342,0.354l0.162,0.383l0.22,0.325l1.966,-11.413l7.989,0l-6.562,38.002" id="svg_23"></path><path fill="#FBB230" d="m2045.988286,179.139082l0.775,-0.075l0.699,-0.158l0.773,-0.191l0.605,-0.342l0.633,-0.315l0.611,-0.441l0.578,-0.485l0.501,-0.546l0.421,-0.603l0.393,-0.633l0.351,-0.656l0.278,-0.69l0.375,-0.739l0.166,-0.769l0.258,-0.741l0.123,-0.802l0.112,-0.838l0.116,-0.823l0,-0.81l-0.035,-0.78l-0.113,-0.769l-0.08,-0.735l-0.195,-0.694l-0.296,-0.656l-0.245,-0.583l-0.313,-0.54l-0.38,-0.469l-0.446,-0.399l-0.49,-0.365l-0.501,-0.235l-0.578,-0.117l-0.646,-0.074l-0.746,0.074l-0.789,0.083l-0.598,0.232l-0.727,0.306l-0.552,0.35l-0.539,0.465l-0.5,0.5l-0.506,0.577l-0.424,0.614l-0.394,0.666l-0.448,0.69l-0.31,0.772l-0.24,0.806l-0.294,0.751l-0.165,0.873l-0.225,0.816l-0.188,1.311l0.078,1.39l0.257,1.425l0.361,1.354l0.606,1.202l0.701,0.96l0.962,0.623l1.23,0.233z" id="svg_24"></path><path fill="#fff" d="m1867.534286,179.732082l-1.166,6.433l-7.279,0l0.199,-1.195l0.123,-1.048l0.142,-0.844l0.084,-0.427l-0.386,0.466l-0.47,0.465l-0.567,0.428l-0.587,0.41l-0.694,0.434l-0.731,0.307l-0.781,0.381l-0.772,0.285l-0.848,0.229l-0.808,0.239l-0.889,0.18l-0.846,0.078l-0.83,0.08l-0.867,0.036l-0.78,-0.116l-0.811,-0.078l-1.041,-0.269l-0.928,-0.31l-0.774,-0.354l-0.734,-0.426l-0.628,-0.466l-0.6,-0.53l-0.47,-0.579l-0.388,-0.542l-0.379,-0.655l-0.275,-0.623l-0.228,-0.613l-0.196,-0.676l-0.082,-0.674l-0.111,-0.66l-0.074,-0.623l0,-0.618l0.109,-1.176l0.158,-1.06l0.312,-1.039l0.352,-0.942l0.469,-0.939l0.526,-0.861l0.639,-0.787l0.706,-0.723l0.699,-0.682l0.817,-0.631l0.832,-0.534l0.903,-0.469l0.922,-0.416l0.97,-0.294l0.954,-0.261l1.022,-0.209l0.189,0l0.2,-0.023l0.342,-0.035l0.351,-0.077l0.418,-0.035l0.425,-0.056l0.5,-0.025l0.503,-0.071l0.497,-0.076l0.478,-0.043l0.459,-0.027l0.47,-0.016l0.469,-0.042l0.414,-0.031l0.992,0l0.703,0.031l0.618,0.042l0.619,0l0.542,0.016l0.391,0l0.299,0.027l0.109,0l0.012,-0.195l0.226,-0.529l0.115,-0.592l0.079,-0.575l-0.151,-0.617l-0.269,-0.558l-0.312,-0.528l-0.468,-0.43l-0.573,-0.412l-0.584,-0.275l-0.693,-0.158l-0.769,-0.072l-0.832,-0.002l-0.873,-0.006l-0.889,0l-0.919,0.006l-0.967,0.041l-0.931,0.108l-0.927,0.079l-0.881,0.118l-0.873,0.124l-0.871,0.147l-0.768,0.111l-0.695,0.191l-0.617,0.163l-0.546,0.153l-0.383,0.193l-0.336,0.207l2.099,-7.033l0.629,-0.226l0.617,-0.242l0.702,-0.225l0.692,-0.133l0.699,-0.12l0.771,-0.145l0.767,-0.082l0.751,-0.081l0.83,-0.069l0.82,-0.039l0.918,-0.039l2.782,0l0.985,0.039l1.027,0.039l0.844,0.069l0.86,0.128l0.884,0.193l0.925,0.271l0.891,0.383l0.89,0.386l0.882,0.501l0.784,0.571l0.72,0.625l0.668,0.695l0.583,0.782l0.416,0.874l0.309,0.933l0.151,0.999l0,1.084l-0.151,1.161l-2.956,15.348z" id="svg_25"></path><path stroke="#fff" stroke-width="0.216" stroke-miterlimit="2.613" fill="none" d="m1867.534286,179.732082l-1.166,6.433l-7.279,0l0.199,-1.195l0.123,-1.048l0.142,-0.844l0.084,-0.427l-0.386,0.466l-0.47,0.465l-0.567,0.428l-0.587,0.41l-0.694,0.434l-0.731,0.307l-0.781,0.381l-0.772,0.285l-0.848,0.229l-0.808,0.239l-0.889,0.18l-0.846,0.078l-0.83,0.08l-0.867,0.036l-0.78,-0.116l-0.811,-0.078l-1.041,-0.269l-0.928,-0.31l-0.774,-0.354l-0.734,-0.426l-0.628,-0.466l-0.6,-0.53l-0.47,-0.579l-0.388,-0.542l-0.379,-0.655l-0.275,-0.623l-0.228,-0.613l-0.196,-0.676l-0.082,-0.674l-0.111,-0.66l-0.074,-0.623l0,-0.618l0.109,-1.176l0.158,-1.06l0.312,-1.039l0.352,-0.942l0.469,-0.939l0.526,-0.861l0.639,-0.787l0.706,-0.723l0.699,-0.682l0.817,-0.631l0.832,-0.534l0.903,-0.469l0.922,-0.416l0.97,-0.294l0.954,-0.261l1.022,-0.209l0.189,0l0.2,-0.023l0.342,-0.035l0.351,-0.077l0.418,-0.035l0.425,-0.056l0.5,-0.025l0.503,-0.071l0.497,-0.076l0.478,-0.043l0.459,-0.027l0.47,-0.016l0.469,-0.042l0.414,-0.031l0.992,0l0.703,0.031l0.618,0.042l0.619,0l0.542,0.016l0.391,0l0.299,0.027l0.109,0l0.012,-0.195l0.226,-0.529l0.115,-0.592l0.079,-0.575l-0.151,-0.617l-0.269,-0.558l-0.312,-0.528l-0.468,-0.43l-0.573,-0.412l-0.584,-0.275l-0.693,-0.158l-0.769,-0.072l-0.832,-0.002l-0.873,-0.006l-0.889,0l-0.919,0.006l-0.967,0.041l-0.931,0.108l-0.927,0.079l-0.881,0.118l-0.873,0.124l-0.871,0.147l-0.768,0.111l-0.695,0.191l-0.617,0.163l-0.546,0.153l-0.383,0.193l-0.336,0.207l2.099,-7.033l0.629,-0.226l0.617,-0.242l0.702,-0.225l0.692,-0.133l0.699,-0.12l0.771,-0.145l0.767,-0.082l0.751,-0.081l0.83,-0.069l0.82,-0.039l0.918,-0.039l2.782,0l0.985,0.039l1.027,0.039l0.844,0.069l0.86,0.128l0.884,0.193l0.925,0.271l0.891,0.383l0.89,0.386l0.882,0.501l0.784,0.571l0.72,0.625l0.668,0.695l0.583,0.782l0.416,0.874l0.309,0.933l0.151,0.999l0,1.084l-0.151,1.161l-2.956,15.348" id="svg_26"></path><path fill="#EB2230" d="m1860.530286,172.143082l-0.028,-0.151l-0.092,-0.153l-0.159,-0.075l-0.304,-0.045l-0.347,-0.071l-0.349,-0.043l-0.861,0l-0.462,0.043l-0.492,0.071l-0.468,0.045l-0.463,0.043l-0.449,0.073l-0.434,0.106l-0.309,0.047l-0.352,0.11l-0.189,0.077l-0.232,0.047l-0.346,0.147l-0.283,0.116l-0.414,0.172l-0.352,0.227l-0.387,0.217l-0.42,0.234l-0.384,0.259l-0.361,0.285l-0.381,0.384l-0.311,0.314l-0.27,0.414l-0.203,0.396l-0.209,0.459l-0.053,0.463l-0.03,1.005l0.115,0.739l0.309,0.616l0.351,0.424l0.457,0.307l0.473,0.157l0.466,0.112l0.467,0.018l0.914,-0.018l0.739,-0.112l0.771,-0.108l0.662,-0.2l0.605,-0.197l0.529,-0.261l0.479,-0.277l0.457,-0.275l0.394,-0.305l0.306,-0.361l0.312,-0.294l0.23,-0.383l0.19,-0.319l0.203,-0.38l0.153,-0.275l0.087,-0.346l0.228,-0.817l0.218,-0.966l0.159,-0.921l0.12,-0.774z" id="svg_27"></path><path fill="#fff" d="m1806.412286,186.165082l-7.877,0l6.606,-38.12l13.709,0l1.34,22.596l9.477,-22.596l14.369,0l-6.732,38.12l-7.946,0l5.02,-28.468l-0.342,0l-11.785,28.468l-8.92,0l-0.08,-1.196l-0.192,-3.135l-0.265,-4.51l-0.313,-5.182l-0.262,-5.209l-0.25,-4.545l-0.218,-3.294l-0.048,-1.397l-0.426,0l-4.865,28.468z" id="svg_28"></path><path stroke="#fff" stroke-width="0.216" stroke-miterlimit="2.613" fill="none" d="m1806.412286,186.165082l-7.877,0l6.606,-38.12l13.709,0l1.34,22.596l9.477,-22.596l14.369,0l-6.732,38.12l-7.946,0l5.02,-28.468l-0.342,0l-11.785,28.468l-8.92,0l-0.08,-1.196l-0.192,-3.135l-0.265,-4.51l-0.313,-5.182l-0.262,-5.209l-0.25,-4.545l-0.218,-3.294l-0.048,-1.397l-0.426,0l-4.865,28.468" id="svg_29"></path><path fill="#fff" d="m2011.776286,179.732082l-1.268,6.433l-7.236,0l0.073,-1.195l0.004,-1.019l0,-1.173l-0.375,0.465l-0.429,0.449l-0.533,0.389l-0.54,0.395l-0.587,0.413l-0.768,0.311l-0.668,0.385l-0.789,0.244l-0.751,0.227l-0.778,0.239l-0.792,0.18l-0.894,0.078l-0.821,0.08l-0.77,0.036l-0.819,-0.116l-0.803,-0.078l-1.072,-0.269l-0.927,-0.31l-0.78,-0.354l-0.708,-0.426l-0.682,-0.466l-0.582,-0.53l-0.459,-0.579l-0.387,-0.542l-0.314,-0.655l-0.296,-0.623l-0.207,-0.613l-0.186,-0.676l-0.098,-0.674l-0.03,-0.66l-0.077,-0.623l0,-0.618l0.077,-1.176l0.088,-1.06l0.338,-1.039l0.351,-0.942l0.425,-0.939l0.582,-0.861l0.613,-0.787l0.623,-0.723l0.762,-0.682l0.817,-0.631l0.817,-0.534l0.888,-0.469l0.889,-0.416l0.963,-0.294l0.964,-0.261l1.003,-0.209l0.222,0l0.167,-0.023l0.323,-0.035l0.408,-0.077l0.384,-0.035l0.433,-0.056l0.451,-0.025l0.509,-0.071l0.538,-0.076l0.503,-0.043l0.5,-0.027l0.464,-0.016l0.384,-0.042l0.394,-0.031l1.036,0l0.631,0.031l0.727,0.042l0.585,0l0.542,0.016l0.462,0l0.337,0.027l0.087,0l0.008,-0.195l0.111,-0.529l0.106,-0.592l0.077,-0.575l-0.144,-0.617l-0.166,-0.558l-0.476,-0.528l-0.445,-0.43l-0.499,-0.412l-0.548,-0.275l-0.689,-0.158l-0.639,-0.072l-0.908,-0.002l-0.847,-0.006l-0.894,0l-0.928,0.006l-0.959,0.041l-0.931,0.108l-0.927,0.079l-0.89,0.118l-0.854,0.124l-0.807,0.147l-0.843,0.111l-0.625,0.191l-0.692,0.163l-0.536,0.153l-0.393,0.193l-0.273,0.207l1.994,-7.033l0.633,-0.226l0.735,-0.242l0.585,-0.225l0.764,-0.133l0.668,-0.12l0.801,-0.145l0.695,-0.082l0.751,-0.081l0.904,-0.069l0.816,-0.039l0.813,-0.039l2.712,0l1.002,0.039l1.003,0.039l0.778,0.069l0.894,0.128l0.937,0.193l0.938,0.271l0.927,0.383l0.883,0.386l0.85,0.501l0.78,0.571l0.758,0.625l0.631,0.695l0.614,0.782l0.432,0.874l0.276,0.933l0.267,0.999l0,1.084l-0.192,1.161l-2.976,15.348zm-1.268,6.634l0.217,-0.159l1.132,-6.475l-0.313,-0.018l-1.141,6.422l0.105,-0.165l0,0.395l0.18,-0.047l0.037,-0.112l-0.217,0.159zm-7.459,-0.201l0.223,0.201l7.236,0l0,-0.395l-7.236,0l0.094,0.194l-0.317,0l-0.035,0.201l0.258,0l-0.223,-0.201zm0.463,-3.246l-0.205,-0.231l-0.146,0.468l-0.041,0.794l0,1.019l-0.072,1.196l0.318,0l0.069,-1.196l0.077,-1.019l-0.037,-0.794l0,-0.237l-0.203,-0.231l0.24,0.231zm-11.313,3.714l0.836,0.132l0.819,0.057l0.77,-0.032l0.821,-0.025l0.893,-0.132l0.829,-0.124l0.784,-0.227l0.769,-0.237l0.807,-0.303l0.7,-0.382l0.772,-0.31l0.503,-0.4l0.653,-0.451l0.536,-0.383l0.47,-0.469l0.351,-0.428l-0.24,-0.231l-0.37,0.429l-0.492,0.392l-0.445,0.442l-0.543,0.401l-0.655,0.311l-0.679,0.387l-0.711,0.31l-0.717,0.307l-0.786,0.228l-0.78,0.241l-0.78,0.16l-0.869,0.102l-0.821,0.077l-0.77,0.034l-0.819,-0.111l-0.757,-0.102l-0.079,0.337zm-7.031,-8.776l0.034,0.618l0.076,0.622l0.116,0.7l0.14,0.658l0.058,0.684l0.304,0.658l0.203,0.658l0.372,0.584l0.493,0.653l0.445,0.508l0.506,0.577l0.725,0.463l0.699,0.466l0.884,0.35l0.938,0.31l1.038,0.267l0.078,-0.337l-1.082,-0.251l-0.89,-0.302l-0.74,-0.386l-0.726,-0.424l-0.629,-0.457l-0.541,-0.51l-0.461,-0.507l-0.391,-0.573l-0.346,-0.582l-0.263,-0.657l-0.183,-0.578l-0.17,-0.637l-0.145,-0.7l-0.118,-0.635l-0.058,-0.622l0.023,-0.618l-0.389,0zm10.459,-11.193l-1.034,0.17l-1.004,0.257l-0.967,0.343l-0.926,0.391l-0.894,0.459l-0.848,0.617l-0.743,0.585l-0.834,0.696l-0.628,0.73l-0.659,0.842l-0.608,0.854l-0.426,0.971l-0.347,0.993l-0.204,1.012l-0.227,1.097l-0.11,1.176l0.389,0l0.035,-1.176l0.226,-1.023l0.211,-0.997l0.442,-1.006l0.46,-0.893l0.478,-0.776l0.577,-0.846l0.687,-0.729l0.699,-0.621l0.851,-0.611l0.802,-0.51l0.901,-0.468l0.844,-0.428l0.966,-0.299l0.929,-0.272l0.962,-0.159l0,-0.379zm5.953,-0.587l-0.273,0l-0.393,0.062l-0.385,0.002l-0.463,0.023l-0.501,0.071l-0.503,0.042l-0.538,0.073l-0.51,0.017l-0.45,0.069l-0.433,0.075l-0.384,0.032l-0.409,0.065l-0.322,0l-0.168,0.015l-0.142,0.042l-0.08,0l0,0.378l0.08,0l0.142,-0.039l0.168,-0.029l0.322,-0.042l0.409,-0.073l0.384,-0.026l0.433,-0.023l0.45,-0.077l0.51,-0.069l0.538,-0.057l0.503,0l0.501,-0.065l0.463,-0.032l0.385,-0.043l0.666,0l0,-0.391zm3.977,0.289l0.156,-0.13l-0.087,0l-0.336,-0.038l-0.461,-0.035l-0.543,-0.024l-1.311,0l-0.632,-0.063l-0.763,0l0,0.392l1.395,0l0.726,0.074l1.128,0l0.461,0.041l0.336,0.025l0.087,0l0.158,-0.172l-0.158,0.172l0.119,0l0.039,-0.172l-0.314,-0.07zm0.235,-1.864l-0.035,0l-0.035,0.575l-0.009,0.592l-0.087,0.494l-0.07,0.203l0.316,0.071l0.068,-0.201l0.111,-0.546l0.11,-0.613l0,-0.575l-0.369,0zm-3.382,-2.824l0.603,0.004l0.649,0.228l0.612,0.238l0.498,0.343l0.388,0.387l0.315,0.501l0.238,0.54l0.079,0.583l0.369,0l-0.071,-0.654l-0.298,-0.624l-0.388,-0.574l-0.46,-0.471l-0.575,-0.383l-0.556,-0.271l-0.729,-0.151l-0.674,-0.112l0,0.033l0,0.383zm-12.531,1.39l0.344,0.155l0.27,-0.138l0.346,-0.228l0.511,-0.172l0.682,-0.153l0.633,-0.145l0.83,-0.165l0.814,-0.12l0.817,-0.145l0.89,-0.091l0.928,-0.114l0.931,-0.074l0.958,-0.038l2.67,0l0.906,0.038l0,-0.383l-0.906,-0.033l-0.848,-0.052l-0.894,0l-0.928,0.052l-0.958,0.07l-0.931,0.112l-0.928,0.047l-0.89,0.149l-0.889,0.079l-0.814,0.19l-0.831,0.118l-0.637,0.124l-0.688,0.218l-0.554,0.163l-0.445,0.186l-0.314,0.201l0.269,0.166l-0.344,-0.017zm2.218,-7.181l-0.142,0.166l-2.076,7.016l0.343,0.016l2.056,-7.006l-0.157,0.191l-0.024,-0.383l-0.1,0.037l-0.042,0.129l0.142,-0.166zm12.882,-1.312l-1.003,-0.077l-1.002,-0.039l-2.712,0l-0.814,0.077l-0.815,0.039l-0.904,0.072l-0.751,0.005l-0.741,0.146l-0.792,0.091l-0.661,0.187l-0.773,0.12l-0.625,0.194l-0.721,0.23l-0.568,0.267l0.023,0.383l0.691,-0.267l0.714,-0.23l0.558,-0.203l0.772,-0.18l0.666,-0.122l0.793,-0.149l0.664,-0.087l0.751,-0.07l0.904,-0.073l0.815,-0.002l3.526,0l1.002,0.002l1.003,0l0,-0.314zm9.998,9.844l0.111,-1.195l0,-1.084l-0.183,-1.041l-0.307,-0.965l-0.446,-0.883l-0.611,-0.849l-0.763,-0.7l-0.658,-0.653l-0.819,-0.528l-0.898,-0.519l-0.939,-0.418l-0.938,-0.358l-0.938,-0.265l-0.937,-0.191l-0.894,-0.123l-0.778,-0.071l0,0.314l0.778,0.071l0.894,0.154l0.937,0.227l0.89,0.242l0.898,0.34l0.853,0.391l0.85,0.461l0.741,0.578l0.805,0.617l0.588,0.67l0.572,0.756l0.382,0.876l0.418,0.904l0.128,0.963l0,1.084l-0.115,1.126l0.379,0.069zm-3.12,15.313l3.12,-15.313l-0.379,-0.07l-3.054,15.364l0.313,0.019z" id="svg_30"></path><path fill="#FBB230" d="m2004.735286,172.143082l-0.073,-0.157l-0.142,-0.179l-0.234,-0.053l-0.271,-0.106l-0.277,-0.043l-0.389,-0.039l-0.447,0l-0.492,0.039l-0.447,0.078l-0.491,0.071l-0.447,0.013l-0.451,0.072l-0.412,0.114l-0.36,0.039l-0.353,0.081l-0.298,0.07l-0.197,0.04l-0.294,0.051l-0.245,0.11l-0.282,0.116l-0.41,0.182l-0.387,0.166l-0.393,0.192l-0.345,0.264l-0.361,0.271l-0.388,0.332l-0.367,0.285l-0.279,0.42l-0.294,0.393l-0.176,0.424l-0.217,0.468l-0.053,0.497l0,1.005l0.082,0.739l0.31,0.616l0.31,0.424l0.427,0.307l0.503,0.157l0.503,0.112l0.496,0.018l0.857,-0.018l0.769,-0.112l0.845,-0.126l0.597,-0.21l0.679,-0.241l0.581,-0.238l0.534,-0.312l0.454,-0.377l0.405,-0.278l0.304,-0.418l0.279,-0.316l0.34,-0.406l0.122,-0.326l0.192,-0.371l0.151,-0.325l0.083,-0.341l0.037,-0.78l0.197,-0.882l0.142,-0.777l0.073,-0.735z" id="svg_31"></path><path fill="#fff" d="m2013.903286,186.165082l8.195,0l2.893,-16.517l0.149,-0.662l0.23,-0.625l0.08,-0.621l0.304,-0.664l0.236,-0.639l0.35,-0.59l0.447,-0.612l0.469,-0.509l0.468,-0.497l0.546,-0.465l0.729,-0.437l0.701,-0.379l0.836,-0.298l0.937,-0.235l1.006,-0.158l1.188,-0.078l0.666,0l1.382,-7.451l-0.882,0.07l-0.734,0.089l-0.749,0.145l-0.685,0.195l-0.685,0.229l-0.513,0.317l-0.616,0.279l-0.58,0.375l-0.53,0.393l-0.504,0.412l-0.466,0.469l-0.459,0.468l-0.433,0.472l-0.42,0.564l-0.428,0.54l-0.383,0.549l0.849,-5.218l-8.21,0l-5.384,31.089z" id="svg_32"></path><path stroke="#fff" stroke-width="0.216" stroke-miterlimit="2.613" fill="none" d="m2013.903286,186.165082l8.195,0l2.893,-16.517l0.149,-0.662l0.23,-0.625l0.08,-0.621l0.304,-0.664l0.236,-0.639l0.35,-0.59l0.447,-0.612l0.469,-0.509l0.468,-0.497l0.546,-0.465l0.729,-0.437l0.701,-0.379l0.836,-0.298l0.937,-0.235l1.006,-0.158l1.188,-0.078l0.666,0l1.382,-7.451l-0.882,0.07l-0.734,0.089l-0.749,0.145l-0.685,0.195l-0.685,0.229l-0.513,0.317l-0.616,0.279l-0.58,0.375l-0.53,0.393l-0.504,0.412l-0.466,0.469l-0.459,0.468l-0.433,0.472l-0.42,0.564l-0.428,0.54l-0.383,0.549l0.849,-5.218l-8.21,0l-5.384,31.089" id="svg_33"></path><path fill="#fff" d="m1936.968286,186.165082l8.299,0l2.785,-16.517l0.149,-0.662l0.188,-0.586l0.128,-0.627l0.189,-0.571l0.273,-0.594l0.267,-0.531l0.31,-0.534l0.383,-0.503l0.469,-0.432l0.54,-0.422l0.691,-0.381l0.636,-0.273l0.902,-0.275l0.892,-0.224l1.003,-0.176l1.045,-0.058l0.122,0l0.149,0.036l0.083,0.022l0.337,0l0.151,0.021l0.004,0.041l0.008,0l0.04,-0.084l0.112,-0.379l0.153,-0.534l0.132,-0.627l0.176,-0.77l0.267,-0.78l0.202,-0.846l0.294,-0.78l0.207,-0.571l0.284,-0.556l0.33,-0.528l0.237,-0.501l0.333,-0.426l0.126,-0.379l0.19,-0.196l0.073,-0.075l-0.029,0l-0.153,-0.008l-0.17,-0.039l-0.146,-0.042l-0.257,0l-0.166,-0.029l-0.263,-0.041l-0.13,0l-0.913,0.07l-0.889,0.089l-0.704,0.145l-0.755,0.164l-0.591,0.227l-0.654,0.313l-0.582,0.298l-0.514,0.314l-0.483,0.416l-0.453,0.432l-0.474,0.427l-0.428,0.496l-0.425,0.509l-0.391,0.513l-0.424,0.604l-0.428,0.549l1.074,-5.218l-8.362,0l-5.449,31.089z" id="svg_34"></path><path stroke="#fff" stroke-width="0.216" stroke-miterlimit="2.613" fill="none" d="m1936.968286,186.165082l8.299,0l2.785,-16.517l0.149,-0.662l0.188,-0.586l0.128,-0.627l0.189,-0.571l0.273,-0.594l0.267,-0.531l0.31,-0.534l0.383,-0.503l0.469,-0.432l0.54,-0.422l0.691,-0.381l0.636,-0.273l0.902,-0.275l0.892,-0.224l1.003,-0.176l1.045,-0.058l0.122,0l0.149,0.036l0.083,0.022l0.337,0l0.151,0.021l0.004,0.041l0.008,0l0.04,-0.084l0.112,-0.379l0.153,-0.534l0.132,-0.627l0.176,-0.77l0.267,-0.78l0.202,-0.846l0.294,-0.78l0.207,-0.571l0.284,-0.556l0.33,-0.528l0.237,-0.501l0.333,-0.426l0.126,-0.379l0.19,-0.196l0.073,-0.075l-0.029,0l-0.153,-0.008l-0.17,-0.039l-0.146,-0.042l-0.257,0l-0.166,-0.029l-0.263,-0.041l-0.13,0l-0.913,0.07l-0.889,0.089l-0.704,0.145l-0.755,0.164l-0.591,0.227l-0.654,0.313l-0.582,0.298l-0.514,0.314l-0.483,0.416l-0.453,0.432l-0.474,0.427l-0.428,0.496l-0.425,0.509l-0.391,0.513l-0.424,0.604l-0.428,0.549l1.074,-5.218l-8.362,0l-5.449,31.089" id="svg_35"></path><path fill="#fff" d="m1937.854286,164.304082l-0.166,-1.695l-0.422,-1.58l-0.577,-1.314l-0.806,-1.163l-0.853,-1.006l-0.933,-0.784l-1.039,-0.709l-1.125,-0.514l-1.154,-0.43l-1.2,-0.306l-1.198,-0.193l-1.199,-0.148l-1.12,-0.042l-2.365,0.153l-2.075,0.315l-1.896,0.531l-1.693,0.737l-1.467,0.852l-1.245,1.002l-1.136,1.092l-0.936,1.165l-0.822,1.219l-0.655,1.308l-0.531,1.222l-0.431,1.246l-0.344,1.243l-0.237,1.118l-0.149,1.082l-0.111,0.937l-0.16,2.348l0.116,2.156l0.273,1.97l0.499,1.736l0.701,1.51l0.883,1.314l0.969,1.198l1.15,1.004l1.193,0.827l1.324,0.716l1.352,0.586l1.426,0.418l1.465,0.387l1.464,0.198l1.409,0.118l1.422,0.03l0.964,0l0.9,-0.03l0.801,0l0.774,-0.047l0.655,-0.034l0.583,-0.039l0.608,-0.076l0.54,-0.112l0.48,-0.054l0.47,-0.143l0.47,-0.12l0.439,-0.153l0.42,-0.196l0.471,-0.146l0.451,-0.238l0.442,-0.226l1.186,-7.161l-0.813,0.483l-0.85,0.458l-0.811,0.388l-0.852,0.306l-0.784,0.242l-0.796,0.215l-0.813,0.122l-0.739,0.131l-0.808,0.028l-0.768,0.04l-0.765,0l-0.747,-0.04l-0.769,-0.028l-0.769,-0.089l-0.737,-0.116l-0.728,-0.081l-0.59,-0.148l-0.59,-0.199l-0.564,-0.264l-0.542,-0.282l-0.528,-0.374l-0.47,-0.418l-0.433,-0.432l-0.389,-0.507l-0.357,-0.496l-0.291,-0.57l-0.239,-0.482l-0.192,-0.573l-0.152,-0.578l-0.063,-0.511l0.02,-0.494l0.092,-0.414l18.872,0l0.122,-1.743l0.464,-2.474l0.159,-2.17l-0.035,-2.009zm-7.846,2.7l-10.636,0l0.013,-0.029l-0.024,-0.002l0.097,-0.389l0.108,-0.65l0.198,-0.548l0.191,-0.61l0.274,-0.511l0.272,-0.47l0.271,-0.47l0.383,-0.469l0.357,-0.404l0.396,-0.314l0.451,-0.344l0.418,-0.273l0.509,-0.23l0.498,-0.153l0.47,-0.151l0.503,-0.047l0.577,-0.042l0.542,0.077l0.495,0.047l0.467,0.151l0.464,0.154l0.431,0.231l0.424,0.271l0.358,0.307l0.377,0.314l0.296,0.408l0.252,0.469l0.217,0.47l0.228,0.552l0.084,0.609l0.077,0.624l0.044,0.694l-0.082,0.728z" id="svg_36"></path><path fill="#135291" d="m2732.645286,300.026082c0,8.835 -7.209,15.956 -16.022,15.956l-447.972,0c-8.87,0 -16.023,-7.125 -16.023,-15.956l0,-268.022c0,-8.82 7.153,-16.022 16.023,-16.022l447.976,0c8.81,0 16.019,7.201 16.019,16.022l0,268.022l-0.001,0z" id="svg_37"></path><path fill="#3F9BD5" d="m2503.944286,229.560082c17.585,-16.057 28.637,-39.253 28.637,-65.045c0,-25.796 -11.052,-48.99 -28.637,-65.046c-15.461,-14.113 -35.971,-22.714 -58.478,-22.714c-48.108,0 -87.111,39.291 -87.111,87.76c0,48.467 39.003,87.759 87.111,87.759c22.507,0 43.019,-8.6 58.478,-22.714" id="svg_38"></path><path fill="#CD2032" d="m2562.421286,76.756082c-22.507,0 -43.02,8.601 -58.478,22.714c-3.149,2.877 -6.09,5.984 -8.795,9.291l17.584,0c2.408,2.945 4.631,6.047 6.646,9.293l-30.871,0c-1.85,2.984 -3.528,6.084 -5.021,9.293l40.907,0c1.397,3.007 2.639,6.108 3.696,9.292l-48.293,0c-1.005,3.027 -1.852,6.127 -2.528,9.291l53.353,0c1.282,5.993 1.961,12.209 1.961,18.585c0,9.743 -1.581,19.117 -4.49,27.875l-48.295,0c1.058,3.183 2.29,6.286 3.689,9.293l40.907,0c-1.492,3.208 -3.164,6.312 -5.016,9.293l-30.87,0c2.015,3.247 4.235,6.351 6.64,9.293l17.586,0c-2.702,3.308 -5.639,6.417 -8.789,9.293c15.458,14.113 35.971,22.714 58.478,22.714c48.107,0 87.112,-39.292 87.112,-87.759c0,-48.47 -39.005,-87.761 -87.113,-87.761" id="svg_39"></path><path fill="#fff" d="m2434.584286,186.368082l-10.841,0l6.443,-34.203l-14.836,34.203l-9.886,0l-1.806,-34.007l-6.464,34.007l-9.841,0l8.409,-44.492l16.918,0l0.895,27.545l11.927,-27.545l17.63,0l-8.548,44.492zm121.166,-0.443c-2.966,0.819 -5.285,1.173 -7.791,1.173c-5.547,0 -8.576,-2.804 -8.576,-7.945c0,-1.018 0.112,-2.101 0.319,-3.246l0.66,-3.538l0.508,-2.864l5.024,-27.629l10.783,0l-1.563,8.309l5.532,0l-1.485,8.797l-5.558,0l-2.856,15.097c-0.128,0.663 -0.185,1.161 -0.185,1.499c0,1.869 1.121,2.682 3.698,2.682c1.234,0 2.192,-0.112 2.925,-0.338l-1.435,8.003zm31.666,-35.444c-0.909,-0.361 -1.122,-0.361 -1.228,-0.391l-0.935,-0.211c-0.328,-0.061 -0.696,-0.091 -1.091,-0.091c-3.559,0 -6.126,1.597 -9.444,5.876l0.957,-5.483l-9.819,0l-6.607,36.185l10.849,0c3.882,-22.13 5.544,-26.005 10.748,-26.005c0.394,0 0.847,0.031 1.372,0.092l1.268,0.26l3.93,-10.232zm-74.646,11.134c0,4.571 2.557,7.72 8.354,10.085c4.441,1.818 5.128,2.351 5.128,3.994c0,2.252 -1.958,3.268 -6.296,3.268c-3.274,0 -6.316,-0.442 -9.829,-1.432l-1.505,8.347l0.484,0.083l2.01,0.37c0.647,0.112 1.602,0.221 2.866,0.316c2.609,0.204 4.628,0.301 6.05,0.301c11.573,0 16.92,-3.821 16.92,-12.075c0,-4.966 -2.234,-7.878 -7.73,-10.071c-4.6,-1.832 -5.131,-2.238 -5.131,-3.927c0,-1.95 1.824,-2.952 5.367,-2.952c2.155,0 5.094,0.204 7.882,0.543l1.563,-8.376c-2.839,-0.39 -7.146,-0.709 -9.651,-0.709c-12.272,0.002 -16.519,5.561 -16.482,12.235m-42.94,24.753l-9.009,0l0.21,-3.751c-2.744,2.97 -6.402,4.377 -11.373,4.377c-5.875,0 -9.908,-4.031 -9.908,-9.883c0,-8.816 7.006,-13.953 19.046,-13.953c1.234,0 2.801,0.098 4.417,0.278c0.336,-1.189 0.429,-1.702 0.429,-2.35c0,-2.395 -1.892,-3.292 -6.955,-3.292c-3.096,0 -6.595,0.393 -9.01,1.009l-1.502,0.384l-0.973,0.234l1.504,-8.135c5.405,-1.395 8.972,-1.922 12.98,-1.922c9.317,0 14.241,3.676 14.241,10.614c0,1.785 -0.163,3.141 -0.881,7.168l-2.266,12.838l-0.382,2.303l-0.276,1.84l-0.185,1.259l-0.107,0.982zm-7.91,-16.121c-1.136,-0.121 -1.639,-0.149 -2.423,-0.149c-6.146,0 -9.258,1.851 -9.258,5.504c0,2.253 1.519,3.691 3.89,3.691c4.42,0.001 7.605,-3.695 7.791,-9.046" id="svg_40"></path><path fill="#fff" d="m2505.398286,185.587082c-3.716,0.991 -7.311,1.474 -11.109,1.468c-12.121,-0.01 -18.438,-5.569 -18.438,-16.212c0,-12.421 8.037,-21.566 18.947,-21.566c8.926,0 14.625,5.122 14.625,13.153c0,2.666 -0.389,5.265 -1.331,8.933l-21.557,0c-0.083,0.56 -0.104,0.807 -0.104,1.137c0,4.194 3.215,6.335 9.512,6.335c3.872,0 7.372,-0.708 11.258,-2.29l-1.803,9.042zm-5.774,-21.531c0.059,-0.753 0.09,-1.37 0.09,-1.846c0,-2.938 -1.899,-4.663 -5.128,-4.663c-3.448,0 -5.916,2.313 -6.917,6.487l11.955,0.022zm121.494,5.906c-1.624,12.037 -9.968,17.376 -21.061,17.376c-12.265,0 -17.22,-7.496 -17.22,-16.68c0,-12.825 8.392,-21.514 21.349,-21.514c11.248,0 17.221,7.145 17.221,16.331c0,2.235 -0.003,2.383 -0.289,4.487m-11.166,-4.63c0,-3.785 -1.525,-7.359 -5.971,-7.359c-5.532,0 -8.961,6.589 -8.961,12.405c0,4.905 2.35,8.202 6.226,8.132c2.35,0 7.362,-3.225 8.353,-8.857c0.232,-1.314 0.353,-2.755 0.353,-4.321" id="svg_41"></path></g></svg> 